{"glyphs":{":":{"x_min":0,"x_max":333,"ha":333,"o":"m 113 511 l 261 511 l 261 366 l 113 366 z m 113 146 l 261 146 l 261 0 l 113 0 z"},"$":{"x_min":0,"x_max":556,"ha":556,"o":"m 301 91 q 339 96 357 109 q 388 131 388 187 q 388 229 359 253 q 342 267 301 282 z m 254 602 q 212 601 191 579 q 171 557 171 520 q 171 479 202 455 q 219 441 254 430 z m 302 -116 l 254 -116 l 254 -19 q 158 -8 111 23 q 27 80 29 215 l 161 215 q 167 153 180 132 q 199 100 254 90 l 254 298 l 215 310 q 122 337 83 386 q 45 435 45 504 q 45 549 60 586 q 75 624 102 650 q 136 685 179 698 q 205 707 254 710 l 254 775 l 301 775 l 301 709 q 380 703 426 670 q 508 618 511 501 l 383 501 q 379 544 368 564 q 350 599 301 603 l 301 417 q 417 376 457 346 q 523 294 523 201 q 523 78 433 22 q 377 -12 302 -18 z"},"?":{"x_min":0,"x_max":611,"ha":611,"o":"m 238 141 l 384 141 l 384 0 l 238 0 z m 157 690 q 215 727 299 727 q 409 727 482 674 q 555 622 555 518 q 555 455 523 411 q 505 385 452 344 l 417 317 q 389 295 380 266 q 374 247 374 208 l 242 208 q 245 291 257 322 q 270 354 323 395 l 358 422 q 376 436 387 451 q 406 478 406 510 q 406 547 385 578 q 363 608 305 608 q 249 608 225 571 q 201 533 201 493 l 60 493 q 66 632 157 690 z"},"<":{"x_min":0,"x_max":584,"ha":584,"o":"m 11 327 l 586 546 l 586 410 l 176 265 l 586 119 l 586 -17 l 11 202 z"},"'":{"x_min":0,"x_max":238,"ha":238,"o":"m 182 720 l 157 422 l 73 422 l 48 720 z"},"=":{"x_min":0,"x_max":584,"ha":584,"o":"m 564 443 l 564 314 l 36 314 l 36 443 z m 564 215 l 564 86 l 36 86 l 36 215 z"},"a":{"x_min":0,"x_max":556,"ha":556,"o":"m 358 259 q 345 250 332 245 q 318 240 295 236 l 264 230 q 220 222 201 211 q 168 192 168 152 q 168 116 188 100 q 208 84 236 84 q 281 84 319 111 q 357 137 358 207 z m 274 324 q 312 329 329 336 q 359 349 359 375 q 359 408 336 421 q 313 433 270 433 q 220 433 200 409 q 185 391 180 360 l 46 360 q 50 430 85 475 q 140 545 274 545 q 362 545 430 510 q 498 476 498 379 l 498 135 q 498 110 499 74 q 500 46 507 37 q 514 27 527 21 l 527 0 l 376 0 q 370 16 367 30 q 365 44 363 62 q 334 31 297 9 q 252 -17 195 -17 q 123 -17 76 25 q 29 66 29 142 q 29 240 104 284 q 146 308 227 318 z m 281 546 z"},"L":{"x_min":0,"x_max":611,"ha":611,"o":"m 76 720 l 227 720 l 227 129 l 583 129 l 583 0 l 76 0 z"},"3":{"x_min":0,"x_max":556,"ha":556,"o":"m 163 217 q 163 175 177 147 q 202 96 269 96 q 310 96 341 124 q 371 152 371 205 q 371 274 314 298 q 282 311 213 311 l 213 411 q 281 412 308 424 q 354 444 354 507 q 354 547 330 573 q 307 598 264 598 q 214 598 191 567 q 168 536 169 483 l 39 483 q 41 536 57 583 q 74 625 111 660 q 138 685 176 698 q 213 711 268 711 q 370 711 432 659 q 494 606 494 518 q 494 456 457 413 q 434 386 408 376 q 427 376 463 343 q 516 294 516 208 q 516 119 454 51 q 392 -18 270 -18 q 119 -18 61 81 q 30 133 26 217 z"},";":{"x_min":0,"x_max":333,"ha":333,"o":"m 113 511 l 261 511 l 261 366 l 113 366 z m 113 -116 q 163 -102 182 -65 q 194 -43 198 0 l 113 0 l 113 146 l 264 146 l 264 20 q 264 -14 255 -50 q 246 -86 222 -112 q 197 -140 162 -155 q 127 -169 113 -169 z"},"J":{"x_min":0,"x_max":556,"ha":556,"o":"m 164 273 l 164 256 q 166 173 182 139 q 199 105 252 105 q 306 105 323 142 q 333 164 333 216 l 333 720 l 483 720 l 483 219 q 483 127 452 73 q 398 -18 258 -18 q 118 -18 70 56 q 22 129 22 256 l 22 273 z"},"V":{"x_min":0,"x_max":667,"ha":667,"o":"m 498 720 l 654 720 l 408 0 l 266 0 l 23 720 l 184 720 l 340 173 z"},"\"":{"x_min":0,"x_max":474,"ha":474,"o":"m 400 720 l 377 422 l 289 422 l 267 720 z m 215 720 l 191 422 l 104 422 l 82 720 z"},"7":{"x_min":0,"x_max":556,"ha":556,"o":"m 527 590 q 496 559 440 480 q 385 401 347 317 q 317 251 293 156 q 270 61 270 0 l 125 0 q 131 190 250 396 q 327 523 378 574 l 25 574 l 27 699 l 527 699 z"},"S":{"x_min":0,"x_max":667,"ha":667,"o":"m 185 222 q 192 173 212 148 q 249 104 337 104 q 391 104 424 116 q 487 138 487 199 q 487 235 456 254 q 424 273 357 288 l 281 305 q 169 331 126 360 q 53 410 53 516 q 53 613 124 677 q 194 741 330 741 q 444 741 524 680 q 604 620 608 505 l 464 505 q 460 570 407 598 q 372 616 320 616 q 262 616 227 592 q 192 569 192 527 q 192 488 227 469 q 249 457 320 439 l 444 410 q 526 390 567 357 q 632 307 632 210 q 632 112 556 47 q 481 -19 343 -19 q 203 -19 122 46 q 42 110 42 222 z m 331 742 z"},"}":{"x_min":0,"x_max":389,"ha":389,"o":"m 22 -202 l 22 -124 q 59 -113 73 -99 q 98 -74 99 -21 l 99 103 q 99 172 126 205 q 153 239 211 264 q 147 295 123 335 q 99 375 99 438 l 99 552 q 99 606 82 625 q 64 645 22 654 l 22 731 q 71 731 97 726 q 141 717 173 692 q 206 667 219 629 q 231 592 231 564 l 231 434 q 231 364 263 331 q 283 312 333 295 l 333 236 q 292 224 270 206 q 231 172 231 110 l 231 -43 q 231 -117 180 -158 q 129 -199 57 -201 z"},"Z":{"x_min":0,"x_max":611,"ha":611,"o":"m 25 127 l 397 592 l 35 592 l 35 720 l 584 720 l 584 599 l 208 127 l 585 127 l 585 0 l 25 0 z m 310 720 z"},"x":{"x_min":0,"x_max":556,"ha":556,"o":"m 13 0 l 194 270 l 21 531 l 191 531 l 280 377 l 367 531 l 532 531 l 357 272 l 539 0 l 366 0 l 274 160 l 182 0 z"},")":{"x_min":0,"x_max":333,"ha":333,"o":"m 230 538 q 288 406 288 272 q 288 125 220 -26 q 182 -111 148 -154 l 113 -202 l 10 -202 q 75 -85 100 -11 q 144 114 144 264 q 144 359 128 440 q 104 564 42 677 l 13 731 l 118 731 q 192 628 230 538 z"},"&":{"x_min":0,"x_max":722,"ha":722,"o":"m 192 393 l 207 402 q 176 438 159 474 q 142 511 142 550 q 142 629 194 673 q 247 717 331 717 q 408 717 458 672 q 508 627 508 557 q 508 493 478 454 q 448 414 390 380 l 492 254 q 509 280 519 310 q 528 339 529 373 l 652 373 q 649 307 621 240 q 605 203 570 157 l 701 0 l 532 0 l 482 61 q 446 27 415 11 q 359 -18 287 -18 q 177 -18 116 47 q 54 111 54 190 q 54 255 86 301 q 119 348 192 393 z m 283 514 q 292 500 321 464 q 351 484 363 499 q 388 525 388 556 q 388 578 373 596 q 358 613 329 613 q 310 613 294 603 q 270 588 270 555 q 270 536 283 514 z m 296 99 q 331 99 361 115 q 392 131 411 150 l 279 313 q 227 279 210 252 q 193 226 193 194 q 193 159 222 129 q 251 99 296 99 z"},"_":{"x_min":0,"x_max":556,"ha":556,"o":"m 0 -125 l 0 -76 l 556 -76 l 556 -125 z"},"v":{"x_min":0,"x_max":556,"ha":556,"o":"m 393 532 l 542 532 l 351 0 l 204 0 l 13 532 l 169 532 l 280 140 z"},"O":{"x_min":0,"x_max":778,"ha":778,"o":"m 589 361 q 589 482 536 548 q 484 614 395 614 q 305 614 252 548 q 199 482 199 361 q 199 239 252 173 q 305 107 395 107 q 484 107 536 173 q 589 239 589 361 z m 630 64 q 549 -20 395 -20 q 240 -20 159 64 q 49 167 49 361 q 49 559 159 658 q 240 742 395 742 q 549 742 630 658 q 739 559 739 361 q 739 167 630 64 z m 395 742 z"},"(":{"x_min":0,"x_max":333,"ha":333,"o":"m 101 538 q 139 628 213 731 l 318 731 l 289 677 q 227 564 203 440 q 188 359 188 264 q 188 114 231 -11 q 256 -85 321 -202 l 218 -202 l 183 -154 q 149 -111 111 -26 q 43 125 43 272 q 43 406 101 538 z"},"C":{"x_min":0,"x_max":722,"ha":722,"o":"m 146 645 q 234 733 370 733 q 551 733 635 614 q 682 547 685 480 l 535 480 q 520 532 497 558 q 456 605 375 605 q 293 605 246 539 q 199 473 199 352 q 199 230 249 170 q 299 110 376 110 q 455 110 497 162 q 520 189 535 245 l 684 245 q 664 127 584 54 q 503 -20 378 -20 q 223 -20 134 80 q 45 180 45 354 q 45 542 146 645 z m 365 742 z"},"W":{"x_min":0,"x_max":944,"ha":944,"o":"m 174 720 l 270 308 l 290 193 l 311 305 l 392 720 l 551 720 l 636 308 l 658 193 l 680 303 l 776 720 l 929 720 l 727 0 l 583 0 l 496 421 l 471 560 l 445 421 l 358 0 l 219 0 l 15 720 z"},"A":{"x_min":0,"x_max":722,"ha":722,"o":"m 273 272 l 456 272 l 366 555 z m 282 720 l 452 720 l 707 0 l 544 0 l 498 148 l 232 148 l 183 0 l 25 0 z m 366 720 z"},"f":{"x_min":0,"x_max":333,"ha":333,"o":"m 314 724 l 314 611 q 303 612 275 613 q 248 614 237 601 q 227 588 227 572 q 227 557 227 527 l 318 527 l 318 429 l 227 429 l 227 0 l 88 0 l 88 429 l 10 429 l 10 527 l 86 527 l 86 562 q 86 647 115 679 q 146 727 261 727 q 274 727 285 726 q 296 726 314 724 z"},"Q":{"x_min":0,"x_max":778,"ha":778,"o":"m 443 114 q 456 117 477 126 l 404 195 l 481 276 l 554 207 q 571 242 578 269 q 589 308 589 361 q 589 482 539 548 q 490 614 395 614 q 305 614 252 551 q 199 487 199 361 q 199 213 275 149 q 324 107 393 107 q 419 107 443 114 z m 716 210 q 697 148 660 107 l 743 30 l 664 -52 l 577 30 q 538 6 509 -4 q 460 -20 393 -20 q 252 -20 161 64 q 49 165 49 361 q 49 558 164 659 q 257 742 396 742 q 535 742 630 654 q 739 553 739 372 q 739 275 716 210 z"},"w":{"x_min":0,"x_max":778,"ha":778,"o":"m 316 532 l 457 532 l 538 149 l 621 532 l 766 532 l 612 0 l 469 0 l 385 388 l 301 0 l 156 0 l 7 532 l 156 532 l 239 150 z"},"-":{"x_min":0,"x_max":333,"ha":333,"o":"m 23 345 l 303 345 l 303 213 l 23 213 z"},"E":{"x_min":0,"x_max":667,"ha":667,"o":"m 608 592 l 228 592 l 228 439 l 577 439 l 577 314 l 228 314 l 228 129 l 626 129 l 626 0 l 81 0 l 81 720 l 608 720 z"},"s":{"x_min":0,"x_max":556,"ha":556,"o":"m 173 170 q 178 133 192 117 q 218 89 288 89 q 329 89 353 102 q 377 114 377 138 q 377 162 358 174 q 338 186 213 216 q 123 238 85 272 q 48 305 48 368 q 48 441 106 494 q 164 547 269 547 q 369 547 431 508 q 494 468 503 370 l 364 370 q 361 397 349 413 q 326 441 271 441 q 226 441 206 427 q 187 413 187 394 q 187 370 208 359 q 228 348 353 320 q 436 301 477 261 q 518 221 518 161 q 518 82 459 32 q 400 -18 277 -18 q 152 -18 92 35 q 32 88 32 170 z m 280 546 z"},">":{"x_min":0,"x_max":584,"ha":584,"o":"m 586 202 l 11 -17 l 11 119 l 422 265 l 11 410 l 11 546 l 586 326 z"},"l":{"x_min":0,"x_max":278,"ha":278,"o":"m 207 0 l 68 0 l 68 720 l 207 720 z"},"8":{"x_min":0,"x_max":556,"ha":556,"o":"m 273 96 q 321 96 348 125 q 375 153 375 206 q 375 260 347 288 q 320 316 273 316 q 226 316 198 288 q 171 260 171 206 q 171 153 198 125 q 225 96 273 96 z m 133 377 q 82 411 66 451 q 51 491 51 525 q 51 603 109 657 q 167 711 273 711 q 379 711 437 657 q 495 603 495 525 q 495 491 480 451 q 464 411 413 382 q 465 353 492 304 q 518 256 518 196 q 518 107 452 44 q 386 -19 267 -19 q 148 -19 87 44 q 26 107 26 196 q 26 256 53 304 q 81 353 133 377 z m 273 422 q 315 422 339 447 q 362 471 362 510 q 362 552 339 575 q 315 599 273 599 q 231 599 207 575 q 184 552 184 510 q 184 471 207 447 q 231 422 273 422 z"},"\\":{"x_min":0,"x_max":278,"ha":278,"o":"m 60 742 l 340 0 l 224 0 l -55 742 z"},"e":{"x_min":0,"x_max":556,"ha":556,"o":"m 167 319 l 383 319 q 379 375 349 403 q 319 432 275 432 q 227 432 200 401 q 173 371 167 319 z m 482 443 q 514 396 523 333 q 528 296 527 228 l 163 228 q 166 147 213 115 q 242 95 283 95 q 326 95 353 120 q 367 133 378 156 l 521 156 q 515 109 471 60 q 403 -18 280 -18 q 178 -18 101 48 q 23 113 23 261 q 23 399 93 473 q 163 546 275 546 q 341 546 395 521 q 448 497 482 443 z m 285 546 z"},"b":{"x_min":0,"x_max":611,"ha":611,"o":"m 576 273 q 576 149 518 67 q 459 -14 354 -14 q 288 -14 248 12 q 224 28 196 67 l 196 0 l 60 0 l 60 719 l 199 719 l 199 463 q 225 500 257 520 q 294 544 353 544 q 458 544 517 468 q 576 393 576 273 z m 430 258 q 430 315 416 352 q 388 422 313 422 q 237 422 209 354 q 194 317 194 259 q 194 190 225 146 q 255 101 317 101 q 371 101 400 144 q 430 188 430 258 z"},"%":{"x_min":0,"x_max":889,"ha":889,"o":"m 282 523 q 282 555 260 578 q 237 601 205 601 q 172 601 150 578 q 127 555 127 523 q 127 491 150 468 q 172 445 205 445 q 237 445 260 468 q 282 491 282 523 z m 205 341 q 129 341 76 395 q 23 448 23 523 q 23 598 76 651 q 129 705 205 705 q 280 705 333 651 q 386 598 386 523 q 386 448 333 395 q 280 341 205 341 z m 679 245 q 647 245 624 222 q 602 200 602 167 q 602 135 624 113 q 647 90 679 90 q 711 90 734 113 q 757 135 757 167 q 757 200 734 222 q 711 245 679 245 z m 679 -14 q 604 -14 551 39 q 498 92 498 167 q 498 243 551 296 q 604 349 679 349 q 754 349 808 296 q 861 243 861 167 q 861 92 808 39 q 754 -14 679 -14 z m 602 708 l 676 708 l 281 -19 l 206 -19 z"},"m":{"x_min":0,"x_max":889,"ha":889,"o":"m 791 482 q 813 455 821 414 q 826 387 826 335 l 825 0 l 683 0 l 683 339 q 683 369 673 389 q 654 426 604 426 q 547 426 525 378 q 514 353 514 317 l 514 0 l 374 0 l 374 317 q 374 364 364 386 q 346 424 295 424 q 235 424 215 386 q 204 364 204 320 l 204 0 l 62 0 l 62 531 l 198 531 l 198 454 q 224 495 247 513 q 287 544 352 544 q 413 544 450 517 q 480 492 496 453 q 523 500 564 522 q 607 544 660 544 q 695 544 729 530 q 763 517 791 482 z"},"#":{"x_min":0,"x_max":556,"ha":556,"o":"m 298 277 l 338 420 l 257 420 l 219 277 z m 22 277 l 121 277 l 160 420 l 60 420 l 82 502 l 182 502 l 235 699 l 332 699 l 279 502 l 360 502 l 412 699 l 509 699 l 457 502 l 555 502 l 533 420 l 435 420 l 396 277 l 495 277 l 473 195 l 374 195 l 321 0 l 224 0 l 276 195 l 196 195 l 143 0 l 46 0 l 99 195 l 0 195 z"},",":{"x_min":0,"x_max":278,"ha":278,"o":"m 58 -116 q 100 -104 119 -77 q 139 -49 142 0 l 58 0 l 58 146 l 208 146 l 208 20 q 208 -14 199 -50 q 190 -86 167 -112 q 141 -141 106 -155 q 71 -169 58 -169 z"},"n":{"x_min":0,"x_max":611,"ha":611,"o":"m 547 358 l 547 0 l 405 0 l 405 324 q 405 366 394 388 q 373 429 315 429 q 245 429 218 369 q 205 337 205 288 l 205 0 l 66 0 l 66 531 l 200 531 l 200 454 q 227 495 251 513 q 294 545 360 545 q 442 545 495 502 q 547 458 547 358 z m 309 546 z"},"h":{"x_min":0,"x_max":611,"ha":611,"o":"m 514 477 q 536 447 541 415 q 546 384 546 312 l 546 0 l 404 0 l 404 324 q 404 367 389 393 q 370 430 317 430 q 262 430 233 393 q 205 356 205 288 l 205 0 l 66 0 l 66 717 l 205 717 l 205 463 q 235 509 275 528 q 314 546 358 546 q 408 546 448 529 q 488 512 514 477 z"},"z":{"x_min":0,"x_max":500,"ha":500,"o":"m 35 419 l 35 532 l 466 532 l 466 417 l 196 114 l 476 114 l 476 0 l 16 0 l 16 108 l 289 419 z m 250 546 z"},"B":{"x_min":0,"x_max":722,"ha":722,"o":"m 222 595 l 222 436 l 399 436 q 446 436 476 454 q 505 472 505 517 q 505 567 466 583 q 433 595 380 595 z m 222 317 l 222 125 l 399 125 q 446 125 473 138 q 521 161 521 228 q 521 284 474 305 q 448 316 401 317 z m 616 643 q 649 597 649 533 q 649 467 616 427 q 597 405 561 386 q 616 366 644 323 q 672 279 672 217 q 672 153 640 103 q 620 69 589 46 q 554 20 507 10 q 460 0 405 0 l 79 0 l 79 720 l 428 720 q 561 718 616 643 z"},"K":{"x_min":0,"x_max":722,"ha":722,"o":"m 79 720 l 227 720 l 227 423 l 504 720 l 699 720 l 404 423 l 714 0 l 521 0 l 298 314 l 227 241 l 227 0 l 79 0 z"},"R":{"x_min":0,"x_max":722,"ha":722,"o":"m 227 595 l 227 401 l 397 401 q 448 401 473 413 q 518 434 518 494 q 518 560 475 582 q 450 595 401 595 z m 618 651 q 642 624 655 590 q 669 557 669 515 q 669 463 643 414 q 617 364 558 344 q 607 324 628 287 q 649 250 649 174 l 649 126 q 649 77 653 59 q 659 31 680 18 l 680 0 l 515 0 q 508 24 505 39 q 499 69 499 101 l 498 167 q 497 236 472 259 q 448 282 382 282 l 227 282 l 227 0 l 80 0 l 80 720 l 433 720 q 508 718 549 701 q 590 684 618 651 z"},"T":{"x_min":0,"x_max":611,"ha":611,"o":"m 599 720 l 599 592 l 384 592 l 384 0 l 232 0 l 232 592 l 16 592 l 16 720 z"},"P":{"x_min":0,"x_max":667,"ha":667,"o":"m 369 595 l 229 595 l 229 383 l 369 383 q 422 383 452 409 q 481 435 481 491 q 481 547 452 571 q 422 595 369 595 z m 382 259 l 229 259 l 229 0 l 80 0 l 80 720 l 393 720 q 501 720 566 664 q 630 608 630 492 q 630 364 566 312 q 501 259 382 259 z"},"|":{"x_min":0,"x_max":280,"ha":280,"o":"m 180 727 l 180 0 l 52 0 l 52 727 z"},"t":{"x_min":0,"x_max":333,"ha":333,"o":"m 10 428 l 10 527 l 84 527 l 84 676 l 222 676 l 222 527 l 309 527 l 309 428 l 222 428 l 222 147 q 222 114 230 106 q 239 98 281 98 q 288 98 295 98 q 302 99 309 99 l 309 -5 l 243 -7 q 144 -11 108 27 q 84 51 84 101 l 84 428 z"},"M":{"x_min":0,"x_max":833,"ha":833,"o":"m 553 720 l 770 720 l 770 0 l 629 0 l 629 487 q 629 508 630 546 q 630 583 630 604 l 494 0 l 348 0 l 213 604 q 213 583 213 546 q 214 508 214 487 l 214 0 l 74 0 l 74 720 l 292 720 l 423 154 z"},"g":{"x_min":0,"x_max":611,"ha":611,"o":"m 410 269 q 410 344 378 384 q 346 423 292 423 q 219 423 191 354 q 176 318 176 264 q 176 218 192 182 q 220 114 293 114 q 342 114 376 151 q 410 188 410 269 z m 329 533 q 379 512 411 456 l 411 532 l 546 532 l 546 27 q 546 -76 511 -128 q 452 -218 283 -218 q 181 -218 116 -178 q 52 -138 45 -58 l 196 -58 q 202 -83 215 -93 q 238 -112 291 -112 q 366 -112 392 -62 q 408 -30 408 46 l 408 81 q 388 46 365 29 q 324 -2 257 -2 q 155 -2 94 70 q 32 142 32 265 q 32 383 91 464 q 150 545 259 545 q 299 545 329 533 z m 303 546 z"},"j":{"x_min":0,"x_max":278,"ha":278,"o":"m 210 596 l 71 596 l 71 724 l 210 724 z m 4 -102 q 16 -103 21 -103 q 26 -104 30 -104 q 50 -104 61 -94 q 71 -83 71 -55 l 71 530 l 210 530 l 210 -57 q 210 -138 179 -176 q 147 -215 54 -215 q 48 -215 35 -214 q 23 -214 4 -213 z"},"i":{"x_min":0,"x_max":278,"ha":278,"o":"m 208 596 l 67 596 l 67 724 l 208 724 z m 67 532 l 208 532 l 208 0 l 67 0 z"},"y":{"x_min":0,"x_max":556,"ha":556,"o":"m 86 -102 l 104 -103 q 125 -104 143 -102 q 162 -99 174 -90 q 187 -82 197 -56 q 208 -29 206 -23 l 10 532 l 165 532 l 281 140 l 391 532 l 539 532 l 356 9 q 304 -143 273 -179 q 242 -215 150 -215 q 131 -215 120 -215 q 109 -215 86 -213 z m 275 546 z"},"@":{"x_min":0,"x_max":975,"ha":975,"o":"m 522 504 q 471 504 435 441 q 398 378 398 319 q 398 283 414 261 q 431 239 460 239 q 513 239 546 319 q 580 398 580 443 q 580 469 564 487 q 548 504 522 504 z m 292 329 q 292 417 352 494 q 412 571 499 571 q 550 571 579 543 q 600 521 607 493 l 625 554 l 717 554 l 655 342 q 647 316 644 304 q 641 292 641 282 q 641 268 651 255 q 661 242 682 242 q 724 242 766 297 q 809 352 809 442 q 809 577 693 635 q 621 672 531 672 q 365 672 264 571 q 173 479 173 351 q 173 208 280 125 q 374 51 510 51 q 603 51 683 85 q 727 103 774 136 l 786 145 l 821 90 q 752 36 671 8 q 590 -20 503 -20 q 301 -20 189 106 q 97 210 97 354 q 97 514 212 625 q 333 743 522 743 q 676 743 777 662 q 884 577 884 437 q 884 326 816 246 q 749 167 663 167 q 618 167 594 192 q 569 218 569 245 q 569 248 570 252 q 570 256 570 261 q 552 226 529 205 q 487 167 429 167 q 370 167 331 210 q 292 252 292 329 z"},".":{"x_min":0,"x_max":278,"ha":278,"o":"m 62 146 l 210 146 l 210 0 l 62 0 z"},"p":{"x_min":0,"x_max":611,"ha":611,"o":"m 312 422 q 237 422 208 351 q 194 312 194 254 q 194 161 243 124 q 272 102 312 102 q 371 102 401 146 q 432 191 432 266 q 432 328 404 375 q 375 422 312 422 z m 575 273 q 575 132 512 59 q 449 -15 349 -15 q 286 -15 244 17 q 221 34 199 68 l 199 -209 l 61 -209 l 61 532 l 194 532 l 194 454 q 217 488 242 508 q 289 544 353 544 q 446 544 510 475 q 575 406 575 273 z"},"X":{"x_min":0,"x_max":667,"ha":667,"o":"m 191 0 l 16 0 l 248 367 l 27 720 l 207 720 l 335 486 l 467 720 l 641 720 l 421 373 l 655 0 l 472 0 l 335 245 z"},"*":{"x_min":0,"x_max":389,"ha":389,"o":"m 46 640 l 148 606 l 148 724 l 232 724 l 232 606 l 334 640 l 357 567 l 253 535 l 321 438 l 259 393 l 191 485 l 121 393 l 59 438 l 127 535 l 23 567 z"},"Y":{"x_min":0,"x_max":667,"ha":667,"o":"m 487 720 l 657 720 l 417 271 l 417 0 l 266 0 l 266 271 l 17 720 l 194 720 l 344 406 z m 337 720 z"},"c":{"x_min":0,"x_max":556,"ha":556,"o":"m 383 341 q 379 371 363 395 q 339 427 290 427 q 220 427 194 357 q 180 320 180 259 q 180 200 194 165 q 219 98 288 98 q 336 98 357 125 q 377 151 382 193 l 524 193 q 519 129 478 73 q 413 -19 284 -19 q 156 -19 95 58 q 35 134 35 255 q 35 393 102 469 q 168 545 286 545 q 386 545 450 500 q 514 455 525 341 z m 289 546 z"},"!":{"x_min":0,"x_max":333,"ha":333,"o":"m 110 717 l 263 717 l 263 535 l 223 199 l 150 199 l 110 535 z m 113 141 l 259 141 l 259 0 l 113 0 z"},"/":{"x_min":0,"x_max":278,"ha":278,"o":"m 224 742 l 340 742 l 60 0 l -55 0 z"},"[":{"x_min":0,"x_max":333,"ha":333,"o":"m 62 727 l 308 727 l 308 625 l 194 625 l 194 -90 l 308 -90 l 308 -192 l 62 -192 z"},"6":{"x_min":0,"x_max":556,"ha":556,"o":"m 280 95 q 326 95 353 130 q 379 165 379 220 q 379 282 349 315 q 319 348 275 348 q 239 348 212 327 q 171 295 171 224 q 171 167 202 131 q 232 95 280 95 z m 367 530 q 367 547 354 567 q 331 601 286 601 q 218 601 189 524 q 173 482 167 400 q 193 431 228 445 q 262 459 306 459 q 400 459 460 396 q 521 332 521 232 q 521 133 461 57 q 402 -19 278 -19 q 144 -19 81 93 q 31 181 31 319 q 31 400 38 451 q 50 541 85 601 q 116 652 165 684 q 214 715 282 715 q 381 715 439 664 q 498 614 505 530 z"},"r":{"x_min":0,"x_max":389,"ha":389,"o":"m 373 544 l 373 401 q 359 403 349 403 q 339 404 333 404 q 249 404 220 349 q 204 318 204 254 l 204 0 l 63 0 l 63 532 l 196 532 l 196 439 q 229 493 252 512 q 292 545 354 545 q 358 545 361 545 q 363 544 373 544 z"},"2":{"x_min":0,"x_max":556,"ha":556,"o":"m 64 139 q 94 210 205 289 q 301 358 329 388 q 373 434 373 489 q 373 534 348 564 q 323 594 276 594 q 213 594 190 546 q 177 519 174 459 l 39 459 q 42 550 72 605 q 127 711 270 711 q 382 711 448 649 q 515 587 515 484 q 515 406 468 345 q 437 304 367 254 l 311 215 q 259 178 240 161 q 220 145 207 123 l 516 123 l 516 0 l 31 0 q 33 76 64 139 z"},"{":{"x_min":0,"x_max":389,"ha":389,"o":"m 102 110 q 102 171 64 204 q 42 224 0 236 l 0 295 q 47 311 67 331 q 102 364 102 434 l 102 564 q 102 589 110 617 q 125 664 160 692 q 192 717 235 726 q 262 731 311 731 l 311 654 q 271 645 256 630 q 233 608 233 552 l 233 438 q 233 384 219 352 q 194 297 121 264 q 187 237 210 201 q 232 166 233 103 l 233 -21 q 233 -75 260 -99 q 274 -113 311 -124 l 311 -202 l 276 -201 q 207 -199 154 -159 q 102 -119 102 -43 z"},"9":{"x_min":0,"x_max":556,"ha":556,"o":"m 266 714 q 428 714 488 571 q 522 490 522 357 q 522 229 489 143 q 427 -21 260 -21 q 180 -21 117 27 q 53 74 44 164 l 183 164 q 188 133 209 113 q 230 94 266 94 q 335 94 363 170 q 378 212 382 292 q 363 269 341 256 q 302 232 245 232 q 161 232 95 291 q 30 349 30 459 q 30 573 95 643 q 161 714 266 714 z m 330 362 q 377 393 377 467 q 377 527 349 562 q 321 598 272 598 q 236 598 211 578 q 171 546 171 472 q 171 409 197 377 q 222 346 275 346 q 304 346 330 362 z"}," ":{"x_min":0,"x_max":278,"ha":278,"o":""},"I":{"x_min":0,"x_max":278,"ha":278,"o":"m 214 0 l 64 0 l 64 720 l 214 720 z m 139 734 z"},"H":{"x_min":0,"x_max":722,"ha":722,"o":"m 75 0 l 75 720 l 224 720 l 224 445 l 505 445 l 505 720 l 655 720 l 655 0 l 505 0 l 505 321 l 224 321 l 224 0 z"},"4":{"x_min":0,"x_max":556,"ha":556,"o":"m 523 152 l 443 152 l 443 0 l 307 0 l 307 152 l 26 152 l 26 274 l 287 704 l 443 704 l 443 261 l 523 261 z m 307 261 l 307 567 l 129 261 z"},"~":{"x_min":0,"x_max":584,"ha":584,"o":"m 63 318 q 87 346 113 358 q 138 369 165 369 q 177 369 196 366 q 226 361 252 352 l 366 308 q 386 300 405 297 q 423 293 434 293 q 466 293 485 319 q 504 344 513 379 l 596 379 q 583 289 542 224 q 501 159 432 159 q 418 159 403 161 q 374 166 333 182 l 231 221 q 217 226 197 230 q 176 235 167 235 q 139 235 117 214 q 96 192 86 149 l 2 149 q 10 207 26 249 q 41 291 63 318 z"},"D":{"x_min":0,"x_max":722,"ha":722,"o":"m 222 595 l 222 125 l 361 125 q 467 125 509 230 q 532 288 532 367 q 532 477 498 536 q 463 595 361 595 z m 498 704 q 573 679 620 613 q 658 559 671 497 q 685 434 685 377 q 685 234 627 134 q 549 0 386 0 l 76 0 l 76 720 l 386 720 q 453 719 498 704 z"},"^":{"x_min":0,"x_max":584,"ha":584,"o":"m 357 720 l 537 288 l 414 288 l 303 564 l 191 288 l 68 288 l 248 720 z"},"0":{"x_min":0,"x_max":556,"ha":556,"o":"m 275 96 q 337 96 357 160 q 376 225 376 347 q 376 475 357 537 q 337 598 275 598 q 213 598 193 537 q 173 475 173 347 q 173 225 193 160 q 213 96 275 96 z m 520 347 q 520 172 465 77 q 411 -18 275 -18 q 140 -18 86 77 q 31 172 31 347 q 31 522 86 618 q 140 713 275 713 q 411 713 465 618 q 520 522 520 347 z"},"F":{"x_min":0,"x_max":611,"ha":611,"o":"m 76 719 l 586 719 l 586 592 l 226 592 l 226 427 l 542 427 l 542 302 l 226 302 l 226 0 l 76 0 z"},"`":{"x_min":0,"x_max":333,"ha":333,"o":"m 224 604 l 124 604 l -24 750 l 130 750 z m 142 546 z"},"k":{"x_min":0,"x_max":556,"ha":556,"o":"m 63 717 l 200 717 l 200 330 l 374 530 l 546 530 l 360 326 l 553 0 l 385 0 l 258 228 l 200 167 l 200 0 l 63 0 z"},"u":{"x_min":0,"x_max":611,"ha":611,"o":"m 204 532 l 204 211 q 204 166 214 143 q 233 103 289 103 q 360 103 387 160 q 400 191 400 243 l 400 532 l 542 532 l 542 0 l 406 0 l 406 75 q 404 73 396 61 q 389 48 378 39 q 345 10 315 -1 q 284 -12 243 -12 q 125 -12 84 73 q 61 120 61 211 l 61 532 z m 301 546 z"},"]":{"x_min":0,"x_max":333,"ha":333,"o":"m 23 -90 l 136 -90 l 136 627 l 23 627 l 23 727 l 268 727 l 268 -192 l 23 -192 z"},"U":{"x_min":0,"x_max":722,"ha":722,"o":"m 76 720 l 229 720 l 229 277 q 229 203 247 169 q 274 108 366 108 q 457 108 484 169 q 502 203 502 277 l 502 720 l 655 720 l 655 277 q 655 163 619 99 q 553 -19 366 -19 q 179 -19 112 99 q 76 163 76 277 z m 366 720 z"},"o":{"x_min":0,"x_max":611,"ha":611,"o":"m 430 265 q 430 345 397 388 q 365 432 304 432 q 243 432 210 388 q 177 345 177 265 q 177 185 210 142 q 243 98 304 98 q 365 98 397 142 q 430 185 430 265 z m 304 -19 q 167 -19 100 65 q 32 148 32 265 q 32 380 100 465 q 167 549 304 549 q 441 549 509 465 q 576 380 576 265 q 576 148 509 65 q 441 -19 304 -19 z m 304 546 z"},"N":{"x_min":0,"x_max":722,"ha":722,"o":"m 74 720 l 231 720 l 518 217 l 518 720 l 658 720 l 658 0 l 508 0 l 214 511 l 214 0 l 74 0 z m 372 721 z"},"+":{"x_min":0,"x_max":584,"ha":584,"o":"m 36 201 l 36 329 l 236 329 l 236 529 l 364 529 l 364 329 l 564 329 l 564 201 l 364 201 l 364 0 l 236 0 l 236 201 z"},"G":{"x_min":0,"x_max":778,"ha":778,"o":"m 560 495 q 543 569 477 598 q 439 614 394 614 q 307 614 251 549 q 195 483 195 351 q 195 218 256 163 q 316 108 394 108 q 469 108 518 152 q 566 195 577 266 l 411 266 l 411 386 l 710 386 l 710 0 l 611 0 l 596 90 q 552 39 518 18 q 458 -19 371 -19 q 228 -19 137 80 q 42 180 42 353 q 42 527 138 633 q 234 738 392 738 q 529 738 613 669 q 696 599 708 495 z m 392 738 z"},"q":{"x_min":0,"x_max":611,"ha":611,"o":"m 393 164 q 412 205 412 267 q 412 315 396 354 q 366 423 291 423 q 238 423 206 383 q 174 342 174 260 q 174 205 189 169 q 216 103 291 103 q 362 103 393 164 z m 363 513 q 387 495 412 452 l 412 531 l 546 531 l 546 -211 l 408 -211 l 408 66 q 393 34 355 9 q 317 -17 251 -17 q 159 -17 94 57 q 29 131 29 254 q 29 387 94 466 q 160 546 255 546 q 322 546 363 513 z"},"d":{"x_min":0,"x_max":611,"ha":611,"o":"m 408 465 l 408 719 l 549 719 l 549 0 l 414 0 l 414 74 q 384 26 346 5 q 308 -17 251 -17 q 158 -17 94 59 q 31 134 31 252 q 31 389 94 467 q 156 545 261 545 q 310 545 347 524 q 385 502 408 465 z m 412 258 q 412 356 363 398 q 333 423 292 423 q 231 423 203 377 q 174 331 174 263 q 174 189 203 145 q 232 101 292 101 q 351 101 381 145 q 412 188 412 258 z"},"1":{"x_min":0,"x_max":556,"ha":556,"o":"m 69 488 l 69 583 q 135 586 162 592 q 204 601 230 629 q 248 648 257 680 q 263 699 263 708 l 378 708 l 378 0 l 236 0 l 236 488 z"},"5":{"x_min":0,"x_max":556,"ha":556,"o":"m 165 189 q 173 144 197 119 q 220 95 265 95 q 317 95 344 131 q 371 167 371 223 q 371 277 346 314 q 320 352 267 352 q 241 352 223 345 q 190 333 173 302 l 48 308 l 98 699 l 488 699 l 488 581 l 199 581 l 173 426 q 206 447 224 454 q 254 465 297 465 q 385 465 451 406 q 516 347 516 234 q 516 136 453 59 q 390 -19 265 -19 q 164 -19 99 36 q 34 90 26 189 z"}}}
